<?xml version="1.0" encoding="UTF-8" standalone="no"?>
<!-- Generator: Adobe Illustrator 21.0.2, SVG Export Plug-In . SVG Version: 6.00 Build 0)  -->

<svg
   xmlns:dc="http://purl.org/dc/elements/1.1/"
   xmlns:cc="http://creativecommons.org/ns#"
   xmlns:rdf="http://www.w3.org/1999/02/22-rdf-syntax-ns#"
   xmlns:svg="http://www.w3.org/2000/svg"
   xmlns="http://www.w3.org/2000/svg"
   xmlns:sodipodi="http://sodipodi.sourceforge.net/DTD/sodipodi-0.dtd"
   xmlns:inkscape="http://www.inkscape.org/namespaces/inkscape"
   version="1.1"
   id="Capa_1"
   x="0px"
   y="0px"
   viewBox="0 0 2177.248 550.39"
   enable-background="new 0 0 2177.248 550.39"
   xml:space="preserve"
   inkscape:version="0.91 r13725"
   sodipodi:docname="logo-sl-white.svg"><metadata
     id="metadata61"><rdf:RDF><cc:Work
         rdf:about=""><dc:format>image/svg+xml</dc:format><dc:type
           rdf:resource="http://purl.org/dc/dcmitype/StillImage" /><dc:title></dc:title></cc:Work></rdf:RDF></metadata><defs
     id="defs59" /><sodipodi:namedview
     pagecolor="#ffffff"
     bordercolor="#666666"
     borderopacity="1"
     objecttolerance="10"
     gridtolerance="10"
     guidetolerance="10"
     inkscape:pageopacity="0"
     inkscape:pageshadow="2"
     inkscape:window-width="1600"
     inkscape:window-height="879"
     id="namedview57"
     showgrid="false"
     inkscape:zoom="0.11528314"
     inkscape:cx="1088.624"
     inkscape:cy="275.19501"
     inkscape:window-x="0"
     inkscape:window-y="21"
     inkscape:window-maximized="1"
     inkscape:current-layer="Capa_1" /><path
     id="XMLID_229_"
     fill="#4A4A49"
     d="M733.598,132.96l-3.564-52.086c-0.264-2.788-0.458-5.577-0.594-8.382  c-0.128-2.789-0.33-6.056-0.598-9.778c-0.66,3.061-1.481,6.056-2.475,8.985c-0.99,2.912-1.93,5.792-2.875,8.58l-15.833,52.474  H685.08l-14.265-50.881c-0.651-2.401-1.485-5.519-2.467-9.38c-0.994-3.853-1.897-7.913-2.673-12.17  c-0.14,3.722-0.297,7.409-0.491,11.08c-0.202,3.656-0.441,7.146-0.693,10.47l-3.379,51.088h-26.724L645.878,26h33.059l13.469,49.495  c1.065,3.449,1.881,6.477,2.467,9.068c0.61,2.599,1.234,5.627,1.898,9.075c0.66-3.317,1.349-6.576,2.075-9.769  c0.73-3.201,1.551-6.32,2.463-9.372L715.38,26h33.275l10.891,106.96H733.598L733.598,132.96z M868.663,97.037L868.663,97.037  c0,3.985-0.198,7.343-0.594,10.074c-0.4,2.731-0.957,5.09-1.683,7.088c-0.714,1.988-1.654,3.762-2.769,5.289  c-1.126,1.526-2.413,3.028-3.869,4.488c-2.904,2.797-7.091,5.322-12.574,7.583c-5.474,2.26-12.375,3.383-20.696,3.383  c-8.841,0-16.534-1.156-23.068-3.474c-6.531-2.343-11.58-5.693-15.157-10.09c-2.236-3.052-3.762-6.345-4.546-9.876  c-0.804-3.515-1.192-7.813-1.192-12.871V26h26.934v69.643c0,3.184,0.095,5.717,0.297,7.574c0.198,1.873,0.82,3.465,1.881,4.801  c2.768,3.853,7.393,5.784,13.857,5.784c2.653,0,5.025-0.438,7.129-1.295c2.125-0.867,3.911-1.898,5.355-3.094  c1.06-0.941,1.943-2.426,2.673-4.497c0.718-2.062,1.093-5.882,1.093-11.468V26h26.93V97.037L868.663,97.037z M955.405,91.856  L955.405,91.856c-0.396-4.926-0.727-9.645-0.994-14.166c-0.264-4.538-0.396-8.721-0.396-12.582l-0.384-39.305h24.55V132.96  l-27.132-0.206l-19.81-43.695c-2.236-5.066-4.385-9.909-6.435-14.562c-2.042-4.67-3.791-8.928-5.252-12.789  c0.136,2.137,0.243,4.562,0.306,7.294c0.066,2.722,0.132,5.495,0.185,8.283c0.07,2.789,0.149,5.52,0.215,8.177  c0.05,2.657,0.095,4.86,0.095,6.592l0.59,40.906h-24.958V25.802h28.922l20.606,41.302c2.24,4.661,4.051,8.811,5.445,12.474  C952.336,83.242,953.817,87.335,955.405,91.856L955.405,91.856z M1008.266,132.96L1008.266,132.96V26h27.536v106.96H1008.266  L1008.266,132.96z M1144.928,124.173L1144.928,124.173c-4.625,3.589-9.521,6.254-14.662,7.979  c-5.152,1.733-11.155,2.599-18.019,2.599c-7.652,0-14.488-0.9-20.502-2.698c-6.003-1.791-11.518-4.752-16.531-8.869  c-10.953-10.247-16.435-23.877-16.435-40.915c0-7.186,0.66-13.606,1.972-19.257c1.328-5.652,3.51-10.932,6.543-15.849  c4.629-7.599,10.924-13.448,18.906-17.565c7.999-4.134,16.741-6.196,26.25-6.196c5.8,0,11.468,0.833,17.029,2.491  c5.54,1.675,9.834,3.639,12.879,5.9l-11.889,17.152c-5.801-3.589-11.617-5.379-17.434-5.379c-3.172,0-6.402,0.594-9.707,1.79  c-3.301,1.196-5.801,2.789-7.521,4.785c-2.628,2.666-4.525,6.156-5.643,10.487c-1.123,4.315-1.68,9.538-1.68,15.651  c0,7.714,0.388,13.845,1.176,18.365c0.804,4.522,2.125,8.177,3.977,10.974c2.24,3.061,5.024,5.421,8.312,7.078  c3.304,1.667,7.252,2.508,11.876,2.508c3.445,0,6.634-0.47,9.604-1.402c2.974-0.94,6.175-2.599,9.608-4.991L1144.928,124.173  L1144.928,124.173z M1163.348,132.96L1163.348,132.96V26h27.528v106.96H1163.348L1163.348,132.96z M1273.063,59.324L1273.063,59.324  c0-3.862-1.135-7.145-3.374-9.876c-2.241-2.731-6.147-4.092-11.704-4.092h-12.062v29.142h11.889c5.412,0,9.307-1.073,11.658-3.201  C1271.871,69.167,1273.063,65.173,1273.063,59.324L1273.063,59.324z M1301.56,59.324L1301.56,59.324  c0,3.861-0.515,7.573-1.576,11.171c-1.048,3.589-2.615,6.881-4.653,9.876c-2.038,2.995-4.496,5.594-7.338,7.788  c-2.826,2.186-6.027,3.746-9.592,4.686c-1.979,0.528-3.733,0.941-5.255,1.205c-1.522,0.264-3.098,0.471-4.752,0.594  c-1.638,0.14-3.387,0.231-5.24,0.297c-1.865,0.066-4.034,0.09-6.534,0.09h-10.697v37.928h-26.522V25.398h30.082  c5.557,0,10.169,0.14,13.856,0.405c3.721,0.264,6.819,0.627,9.319,1.097c2.5,0.462,4.653,1.031,6.448,1.691  c1.766,0.676,3.444,1.394,5.041,2.203c5.668,2.657,9.991,6.485,12.978,11.468C1300.084,47.253,1301.56,52.947,1301.56,59.324  L1301.56,59.324z M1371.072,90.453L1371.072,90.453c-0.776-2.796-1.609-5.923-2.471-9.372c-0.846-3.466-1.707-6.997-2.553-10.586  c-0.875-3.597-1.667-7.12-2.385-10.577c-0.73-3.457-1.348-6.518-1.881-9.167c-0.532,2.649-1.192,5.677-1.98,9.075  c-0.792,3.391-1.65,6.881-2.57,10.47c-0.949,3.589-1.869,7.153-2.785,10.676c-0.92,3.523-1.77,6.683-2.57,9.479H1371.072  L1371.072,90.453z M1385.143,132.96L1385.143,132.96l-8.114-22.747h-31.501l-7.507,22.747h-27.928l39.199-107.563h26.937  l36.843,107.563H1385.143L1385.143,132.96z M1491.48,132.96L1491.48,132.96h-62.172V26h26.736l0.202,85.401h40.779L1491.48,132.96  L1491.48,132.96z M1518.418,132.96L1518.418,132.96V26h27.541v106.96H1518.418L1518.418,132.96z M1632.11,82.665L1632.11,82.665  c0-11.7-1.427-20.751-4.282-27.128c-2.83-6.394-8.341-9.579-16.525-9.579h-9.703v66.243h12.673c2.368,0,4.637-0.461,6.832-1.394  c2.17-0.932,4.068-2.491,5.66-4.695c1.584-2.194,2.855-5.181,3.853-8.977C1631.591,93.341,1632.11,88.531,1632.11,82.665  L1632.11,82.665z M1661.598,80.479L1661.598,80.479c0,7.846-1.048,14.793-3.16,20.849c-2.112,6.048-4.984,11.279-8.614,15.66  c-3.646,4.389-7.995,7.854-13.077,10.379c-5.083,2.524-10.602,4.191-16.526,4.991c-2.261,0.264-4.785,0.437-7.632,0.495  c-2.838,0.074-6.312,0.107-10.396,0.107h-27.532V26.396h23.374c1.708,0,3.589,0,5.644,0c2.038,0,4.093,0.033,6.146,0.107  c2.039,0.057,3.936,0.123,5.628,0.19c1.724,0.074,3.184,0.173,4.365,0.297c13.077,1.468,23.299,6.691,30.7,15.668  C1657.911,51.643,1661.598,64.25,1661.598,80.479L1661.598,80.479z M1731.109,90.453L1731.109,90.453  c-0.792-2.796-1.609-5.923-2.467-9.372c-0.85-3.466-1.716-6.997-2.574-10.586c-0.858-3.597-1.65-7.12-2.384-10.577  c-0.717-3.457-1.337-6.518-1.865-9.167c-0.528,2.649-1.196,5.677-1.996,9.075c-0.776,3.391-1.634,6.881-2.566,10.47  c-0.941,3.589-1.84,7.153-2.773,10.676c-0.923,3.523-1.782,6.683-2.573,9.479H1731.109L1731.109,90.453z M1745.168,132.96  L1745.168,132.96l-8.119-22.747h-31.484l-7.524,22.747h-27.912l39.199-107.563h26.938l36.838,107.563H1745.168L1745.168,132.96z   M1844.983,82.665L1844.983,82.665c0-11.7-1.402-20.751-4.249-27.128c-2.838-6.394-8.358-9.579-16.526-9.579h-9.718v66.243h12.664  c2.384,0,4.661-0.461,6.848-1.394c2.178-0.932,4.06-2.491,5.644-4.695c1.576-2.194,2.871-5.181,3.861-8.977  C1844.48,93.341,1844.983,88.531,1844.983,82.665L1844.983,82.665z M1874.487,80.479L1874.487,80.479  c0,7.846-1.056,14.793-3.151,20.849c-2.129,6.048-5,11.279-8.63,15.66c-3.639,4.389-7.97,7.854-13.069,10.379  c-5.082,2.524-10.585,4.191-16.525,4.991c-2.245,0.264-4.794,0.437-7.64,0.495c-2.83,0.074-6.287,0.107-10.38,0.107h-27.54V26.396  h23.374c1.708,0,3.589,0,5.644,0c2.038,0,4.092,0.033,6.129,0.107c2.038,0.057,3.936,0.123,5.644,0.19  c1.724,0.074,3.177,0.173,4.365,0.297c13.069,1.468,23.308,6.691,30.7,15.668C1870.799,51.643,1874.487,64.25,1874.487,80.479  L1874.487,80.479z M2004.589,82.665L2004.589,82.665c0-11.7-1.418-20.751-4.249-27.128c-2.838-6.394-8.358-9.579-16.542-9.579  h-9.702v66.243h12.68c2.368,0,4.637-0.461,6.832-1.394c2.17-0.932,4.051-2.491,5.644-4.695c1.576-2.194,2.871-5.181,3.861-8.977  C2004.103,93.341,2004.589,88.531,2004.589,82.665L2004.589,82.665z M2034.102,80.479L2034.102,80.479  c0,7.846-1.048,14.793-3.177,20.849c-2.112,6.048-4.983,11.279-8.613,15.66c-3.622,4.389-7.986,7.854-13.052,10.379  c-5.099,2.524-10.611,4.191-16.559,4.991c-2.235,0.264-4.777,0.437-7.623,0.495c-2.83,0.074-6.287,0.107-10.38,0.107h-27.524V26.396  h23.349c1.716,0,3.597,0,5.652,0c2.054,0,4.092,0.033,6.146,0.107c2.038,0.057,3.919,0.123,5.644,0.19  c1.707,0.074,3.16,0.173,4.348,0.297c13.069,1.468,23.308,6.691,30.683,15.668C2030.406,51.643,2034.102,64.25,2034.102,80.479  L2034.102,80.479z M2056.486,132.96L2056.486,132.96V25.596h67.522l-3.762,20.758h-37.425v19.958h31.286V87.26h-30.7v23.943h41.798  v21.757H2056.486L2056.486,132.96z"
     style="fill:#ffffff" /><path
     id="XMLID_214_"
     fill="#4A4A49"
     d="M759.079,270.464c0,7.978-1.642,15.173-4.954,21.591  c-3.325,6.386-8.065,11.881-14.249,16.427c-6.179,4.546-13.593,8.077-22.248,10.585c-8.683,2.5-18.271,3.779-28.773,3.779  c-9.042,0-18.106-1.032-27.236-3.069c-9.117-2.046-18.204-5.214-27.231-9.48l12.174-28.423c7.735,3.357,14.967,6.039,21.687,8.085  c6.737,2.038,14.265,3.044,22.549,3.044c17.52,0,26.269-4.909,26.269-14.768c0-4.076-1.534-7.517-4.566-10.297  c-3.036-2.788-7.958-4.909-14.781-6.402l-18.816-4.446c-16.039-4.283-26.83-11.353-32.342-21.18  c-4.067-7.071-6.089-14.785-6.089-23.142c0-6.857,1.464-13.226,4.414-19.084c2.954-5.85,7.058-10.858,12.314-15.041  c5.252-4.174,11.617-7.483,19.075-9.884c7.479-2.417,15.61-3.639,24.475-3.639c10.131,0,20.403,1.395,30.82,4.183  c10.437,2.789,19.129,6.51,26.142,11.147l-17.425,25.923c-14.006-7.441-26.922-11.146-38.704-11.146  c-5.903,0-10.693,1.205-14.393,3.613c-3.684,2.426-5.511,5.759-5.511,10.025c0,3.721,0.998,6.51,3.031,8.366  c2.034,1.865,6.18,3.532,12.43,5.016l19.925,4.736c13.082,3.168,23.366,8.308,30.825,15.469  C755.366,249.598,759.079,258.929,759.079,270.464L759.079,270.464z M858.35,260.143L858.35,260.143  c-1.085-3.902-2.228-8.267-3.437-13.102c-1.2-4.827-2.4-9.752-3.589-14.768c-1.204-5.017-2.31-9.934-3.308-14.76  c-1.023-4.835-1.905-9.108-2.648-12.805c-0.722,3.696-1.663,7.921-2.756,12.664c-1.11,4.735-2.314,9.612-3.593,14.62  c-1.308,5.016-2.587,9.983-3.886,14.908c-1.287,4.934-2.475,9.34-3.58,13.242H858.35L858.35,260.143z M877.999,319.489  L877.999,319.489l-11.345-31.772h-43.951l-10.511,31.772H773.2l54.754-150.185h37.615l51.43,150.185H877.999L877.999,319.489z   M1021.525,262.098L1021.525,262.098c-0.573-6.881-1.015-13.473-1.386-19.792c-0.368-6.312-0.549-12.153-0.549-17.558l-0.561-54.883  h34.298v149.624l-37.887-0.28l-27.66-61.021c-3.127-7.054-6.122-13.835-8.985-20.329c-2.871-6.51-5.292-12.45-7.33-17.837  c0.181,2.97,0.338,6.361,0.428,10.173c0.074,3.804,0.166,7.665,0.277,11.558c0.086,3.895,0.185,7.706,0.272,11.419  c0.099,3.712,0.128,6.782,0.128,9.207l0.841,57.111H938.57V169.865h40.349l28.766,57.672c3.147,6.51,5.668,12.318,7.603,17.417  C1017.239,250.06,1019.309,255.778,1021.525,262.098L1021.525,262.098z M1229.839,319.489L1229.839,319.489h-86.841V170.137h37.329  l0.297,119.253h56.953L1229.839,319.489L1229.839,319.489z M1358.151,243.147L1358.151,243.147c0-15.231-2.125-27.12-6.353-35.667  c-4.273-8.547-12.091-12.822-23.518-12.822c-11.068,0-18.947,4.414-23.637,13.242c-4.715,8.828-7.059,21.773-7.059,38.86  c0,9.48,0.644,17.335,1.923,23.564c1.304,6.196,3.188,11.188,5.677,14.908c2.507,3.713,5.672,6.336,9.562,7.937  c3.849,1.576,8.362,2.36,13.535,2.36c4.79,0,9.08-0.883,12.85-2.649c3.787-1.774,6.918-4.686,9.401-8.786  c2.488-4.076,4.394-9.472,5.677-16.155C1357.492,261.273,1358.151,252.989,1358.151,243.147L1358.151,243.147z M1400.456,243.147  L1400.456,243.147c0,11.699-1.464,22.384-4.43,32.045c-2.949,9.653-7.318,17.913-13.135,24.785  c-5.792,6.89-13.131,12.219-21.971,16.023c-8.841,3.812-19.108,5.718-30.716,5.718c-11.79,0-22.293-1.865-31.517-5.578  c-9.2-3.696-16.959-8.951-23.217-15.742c-6.275-6.765-11.027-14.801-14.253-24.1c-3.227-9.29-4.831-19.504-4.831-30.651  c0-24.694,6.456-43.785,19.347-57.251c12.908-13.473,30.593-20.206,53.109-20.206c10.483,0,20.128,1.593,28.869,4.735  c8.762,3.168,16.34,7.855,22.698,14.076c6.352,6.229,11.286,14.025,14.772,23.398  C1398.711,219.789,1400.456,230.696,1400.456,243.147L1400.456,243.147z M1504.97,215.004L1504.97,215.004  c0-5.94-1.786-10.404-5.375-13.366c-3.585-2.979-10.482-4.463-20.606-4.463h-12.734v35.378h12.169  c10.148,0,17.124-1.436,20.895-4.316C1503.085,225.358,1504.97,220.952,1504.97,215.004L1504.97,215.004z M1510.502,319.489  L1510.502,319.489c-1.663-2.401-3.127-4.604-4.43-6.543c-1.283-1.963-2.524-3.861-3.729-5.718c-1.201-1.856-2.426-3.82-3.709-5.857  c-1.324-2.022-2.686-4.365-4.17-6.947c-4.41-7.616-8.057-13.72-10.924-18.267c-2.846-4.546-5.153-8.078-6.918-10.585  c-1.724-2.5-3.168-4.183-4.29-5.008c-1.081-0.825-2.207-1.254-3.308-1.254l-2.487,0.264v59.915h-36.207V169.584h57.522  c8.098,0,15.937,0.875,23.478,2.649c7.578,1.774,13.856,5.058,18.807,9.901c4.811,4.81,8.218,9.975,10.239,15.453  c2.03,5.47,3.028,11.279,3.028,17.417c0,5.198-0.816,10.164-2.466,14.901c-1.658,4.735-3.944,8.968-6.791,12.689  c-2.846,3.713-6.08,6.824-9.669,9.331c-3.589,2.508-7.335,4.125-11.204,4.868c1.642,1.873,3.729,4.555,6.213,8.069  c2.508,3.539,5.173,7.441,8.044,11.7c2.847,4.306,5.693,8.745,8.556,13.399c2.872,4.645,5.52,8.944,8.02,12.945  c2.491,4.001,4.653,7.475,6.517,10.462c1.824,2.971,3.028,5.008,3.589,6.122H1510.502L1510.502,319.489z M1577.409,319.489  L1577.409,319.489V169.584h94.304l-5.247,28.984h-52.268v27.863h43.703v29.264h-42.886v33.432h58.364v30.362H1577.409  L1577.409,319.489z M1788.682,262.098L1788.682,262.098c-0.536-6.881-0.999-13.473-1.386-19.792  c-0.355-6.312-0.537-12.153-0.537-17.558l-0.561-54.883h34.306v149.624l-37.895-0.28l-27.672-61.021  c-3.127-7.054-6.113-13.835-8.96-20.329c-2.863-6.51-5.313-12.45-7.335-17.837c0.157,2.97,0.322,6.361,0.421,10.173  c0.074,3.804,0.182,7.665,0.256,11.558c0.107,3.895,0.206,7.706,0.289,11.419c0.09,3.712,0.156,6.782,0.156,9.207l0.801,57.111  h-34.826V169.865h40.361l28.745,57.672c3.151,6.51,5.677,12.318,7.623,17.417C1784.416,250.06,1786.478,255.778,1788.682,262.098  L1788.682,262.098z M1953.486,319.489L1953.486,319.489h-102.571v-25.065l57.497-85.558c2.946-4.076,5.635-7.599,8.02-10.578  c-2.022,0.173-4.191,0.281-6.477,0.281c-2.302,0-5.313,0-8.977,0h-47.021l8.845-28.984h98.718v24.802l-57.234,86.375  c-1.485,2.046-2.789,3.944-3.895,5.718c-1.105,1.757-2.285,3.292-3.589,4.587c2.046-0.181,4.208-0.28,6.518-0.28  c2.285,0,5.19,0,8.68,0h52.283L1953.486,319.489L1953.486,319.489z M2082.896,243.147L2082.896,243.147  c0-15.231-2.104-27.12-6.353-35.667c-4.232-8.547-12.071-12.822-23.497-12.822c-11.064,0-18.927,4.414-23.654,13.242  c-4.695,8.828-7.038,21.773-7.038,38.86c0,9.48,0.643,17.335,1.947,23.564c1.279,6.196,3.161,11.188,5.652,14.908  c2.508,3.713,5.651,6.336,9.538,7.937c3.878,1.576,8.407,2.36,13.556,2.36c4.81,0,9.084-0.883,12.854-2.649  c3.787-1.774,6.913-4.686,9.422-8.786c2.467-4.076,4.349-9.472,5.652-16.155C2082.277,261.273,2082.896,252.989,2082.896,243.147  L2082.896,243.147z M2125.205,243.147L2125.205,243.147c0,11.699-1.444,22.384-4.389,32.045c-2.97,9.653-7.36,17.913-13.176,24.785  c-5.776,6.89-13.094,12.219-21.971,16.023c-8.861,3.812-19.067,5.718-30.7,5.718c-11.781,0-22.292-1.865-31.516-5.578  c-9.217-3.696-16.955-8.951-23.209-15.742c-6.295-6.765-11.031-14.801-14.257-24.1c-3.226-9.29-4.835-19.504-4.835-30.651  c0-24.694,6.461-43.785,19.364-57.251c12.896-13.473,30.601-20.206,53.092-20.206c10.487,0,20.131,1.593,28.893,4.735  c8.738,3.168,16.32,7.855,22.673,14.076c6.336,6.229,11.286,14.025,14.777,23.398  C2123.48,219.789,2125.205,230.696,2125.205,243.147L2125.205,243.147z"
     style="fill:#ffffff" /><g
     id="XMLID_947_"
     style="fill:#ffffff"><path
       id="XMLID_948_"
       fill="#575756"
       d="M640.288,405.6h8.939v72.53h-8.939V405.6z"
       style="fill:#ffffff" /><path
       id="XMLID_950_"
       fill="#575756"
       d="M664.149,405.6h11.583l23.973,60.542h0.202V405.6h8.939v72.53h-12.289l-23.266-58.718   h-0.202v58.718h-8.939V405.6z"
       style="fill:#ffffff" /><path
       id="XMLID_952_"
       fill="#575756"
       d="M745.791,478.13h-8.939V413.52h-18.184V405.6h45.407v7.921h-18.284V478.13z"
       style="fill:#ffffff" /><path
       id="XMLID_954_"
       fill="#575756"
       d="M773.906,405.6h37.486v7.921h-28.547v22.755h26.921v7.929h-26.921v26.006h29.763v7.921   h-38.703V405.6z"
       style="fill:#ffffff" /><path
       id="XMLID_956_"
       fill="#575756"
       d="M824.065,405.6h11.58l23.976,60.542h0.202V405.6h8.939v72.53h-12.289l-23.262-58.718   h-0.206v58.718h-8.939V405.6z"
       style="fill:#ffffff" /><path
       id="XMLID_958_"
       fill="#575756"
       d="M884.578,405.6h19.401c22.553,0,25.399,16.253,25.399,36.261   c0,18.291-4.575,36.269-24.483,36.269h-20.317V405.6z M893.518,470.82h9.343c15.441,0,17.17-15.849,17.17-28.852   c0-14.018-0.916-29.059-17.17-29.059h-9.343V470.82z"
       style="fill:#ffffff" /><path
       id="XMLID_961_"
       fill="#575756"
       d="M943.265,405.6h37.486v7.921h-28.547v22.755h26.921v7.929h-26.921v26.006h29.763v7.921   h-38.703V405.6z"
       style="fill:#ffffff" /><path
       id="XMLID_963_"
       fill="#575756"
       d="M993.42,405.6h11.584l23.972,60.542h0.202V405.6h8.939v72.53h-12.289l-23.267-58.718   h-0.202v58.718h-8.939V405.6z"
       style="fill:#ffffff" /><path
       id="XMLID_965_"
       fill="#575756"
       d="M1097.414,453.239c-0.813,13.72-6.196,26.31-22.042,26.31   c-20.622,0-23.365-19.397-23.365-37.688c0-18.284,3.353-37.689,23.365-37.689c14.831,0,21.027,8.334,21.435,22.558h-9.348   c-0.202-8.226-2.842-15.239-12.087-15.239c-12.392,0-14.018,13.613-14.018,30.37c0,16.765,1.625,30.378,14.018,30.378   c10.87,0,12.392-10.157,12.697-19.001H1097.414z"
       style="fill:#ffffff" /><path
       id="XMLID_967_"
       fill="#575756"
       d="M1108.865,405.6h8.939v72.53h-8.939V405.6z"
       style="fill:#ffffff" /><path
       id="XMLID_969_"
       fill="#575756"
       d="M1146.95,405.6h11.984l19.504,72.53h-9.344l-5.181-19.908h-23.159l-5.384,19.908h-9.347   L1146.95,405.6z M1142.581,450.903h19.504l-9.245-35.048h-0.202L1142.581,450.903z"
       style="fill:#ffffff" /><path
       id="XMLID_972_"
       fill="#575756"
       d="M1214.154,405.6h8.939v64.61h29.459v7.921h-38.399V405.6z"
       style="fill:#ffffff" /><path
       id="XMLID_974_"
       fill="#575756"
       d="M1262.379,405.6h37.487v7.921h-28.547v22.755h26.921v7.929h-26.921v26.006h29.763v7.921   h-38.704V405.6z"
       style="fill:#ffffff" /><path
       id="XMLID_976_"
       fill="#575756"
       d="M1358.25,441.861c0,18.291-3.35,37.688-23.361,37.688   c-20.012,0-23.366-19.397-23.366-37.688c0-18.284,3.354-37.689,23.366-37.689C1354.9,404.172,1358.25,423.577,1358.25,441.861z    M1320.867,441.861c0,16.765,1.625,30.378,14.022,30.378c12.392,0,14.017-13.613,14.017-30.378c0-16.757-1.625-30.37-14.017-30.37   C1322.493,411.491,1320.867,425.104,1320.867,441.861z"
       style="fill:#ffffff" /><path
       id="XMLID_979_"
       fill="#575756"
       d="M1372.136,405.6h11.584l23.972,60.542h0.202V405.6h8.939v72.53h-12.289l-23.267-58.718   h-0.202v58.718h-8.939V405.6z"
       style="fill:#ffffff" /><path
       id="XMLID_981_"
       fill="#575756"
       d="M1445.962,405.6h11.988l19.504,72.53h-9.348l-5.181-19.908h-23.16l-5.388,19.908h-9.343   L1445.962,405.6z M1441.594,450.903h19.503l-9.244-35.048h-0.202L1441.594,450.903z"
       style="fill:#ffffff" /><path
       id="XMLID_984_"
       fill="#575756"
       d="M1485.651,405.6h23.468c11.378,0,18.589,6.707,18.589,18.184   c0,7.921-2.739,16.254-11.171,18.284v0.206c6.295,0.71,9.851,5.891,10.255,12.087l0.611,12.392   c0.404,8.028,1.724,10.057,3.861,11.377h-10.767c-1.527-1.526-2.235-6.905-2.443-10.461l-0.61-11.279   c-0.71-9.958-6.192-10.561-10.763-10.561h-12.092v32.301h-8.939V405.6z M1494.591,438.511h8.841c5.28,0,14.929,0,14.929-14.018   c0-7.112-4.769-11.584-13.102-11.584h-10.668V438.511z"
       style="fill:#ffffff" /><path
       id="XMLID_987_"
       fill="#575756"
       d="M1542.411,405.6h19.405c22.549,0,25.396,16.253,25.396,36.261   c0,18.291-4.571,36.269-24.487,36.269h-20.313V405.6z M1551.346,470.82h9.347c15.445,0,17.169-15.849,17.169-28.852   c0-14.018-0.916-29.059-17.169-29.059h-9.347V470.82z"
       style="fill:#ffffff" /><path
       id="XMLID_990_"
       fill="#575756"
       d="M1646.813,441.861c0,18.291-3.358,37.688-23.365,37.688   c-20.016,0-23.366-19.397-23.366-37.688c0-18.284,3.35-37.689,23.366-37.689C1643.455,404.172,1646.813,423.577,1646.813,441.861z    M1609.43,441.861c0,16.765,1.625,30.378,14.018,30.378s14.017-13.613,14.017-30.378c0-16.757-1.625-30.37-14.017-30.37   S1609.43,425.104,1609.43,441.861z"
       style="fill:#ffffff" /><path
       id="XMLID_993_"
       fill="#575756"
       d="M1688.215,405.6h23.464c11.378,0,18.597,6.707,18.597,18.184   c0,7.921-2.748,16.254-11.18,18.284v0.206c6.296,0.71,9.852,5.891,10.264,12.087l0.611,12.392   c0.404,8.028,1.724,10.057,3.853,11.377h-10.767c-1.518-1.526-2.236-6.905-2.434-10.461l-0.611-11.279   c-0.709-9.958-6.196-10.561-10.767-10.561h-12.087v32.301h-8.944V405.6z M1697.158,438.511h8.836c5.28,0,14.933,0,14.933-14.018   c0-7.112-4.777-11.584-13.11-11.584h-10.66V438.511z"
       style="fill:#ffffff" /><path
       id="XMLID_996_"
       fill="#575756"
       d="M1758.278,405.6h11.988l19.505,72.53h-9.348l-5.181-19.908h-23.16l-5.388,19.908h-9.339   L1758.278,405.6z M1753.906,450.903h19.504l-9.241-35.048h-0.206L1753.906,450.903z"
       style="fill:#ffffff" /><path
       id="XMLID_999_"
       fill="#575756"
       d="M1797.972,405.6h8.944v72.53h-8.944V405.6z"
       style="fill:#ffffff" /><path
       id="XMLID_1001_"
       fill="#575756"
       d="M1822.038,405.6h15.032l14.529,57.498h0.198l14.529-57.498h15.032v72.53h-8.935v-63.389   h-0.206l-16.047,63.389h-8.944l-16.048-63.389h-0.206v63.389h-8.935V405.6z"
       style="fill:#ffffff" /><path
       id="XMLID_1003_"
       fill="#575756"
       d="M1895.65,405.6h8.935v50.996c0,10.668,3.457,15.643,12.293,15.643   c9.546,0,12.392-5.486,12.392-15.643V405.6h8.944v50.996c0,13.919-7.112,22.953-21.336,22.953   c-14.529,0-21.229-8.019-21.229-22.953V405.6z"
       style="fill:#ffffff" /><path
       id="XMLID_1005_"
       fill="#575756"
       d="M1952.298,405.6h11.584l23.976,60.542h0.198V405.6h8.944v72.53h-12.293l-23.266-58.718   h-0.198v58.718h-8.944V405.6z"
       style="fill:#ffffff" /><path
       id="XMLID_1007_"
       fill="#575756"
       d="M2012.816,405.6h19.405c22.549,0,25.396,16.253,25.396,36.261   c0,18.291-4.571,36.269-24.487,36.269h-20.313V405.6z M2021.751,470.82h9.347c15.446,0,17.17-15.849,17.17-28.852   c0-14.018-0.916-29.059-17.17-29.059h-9.347V470.82z"
       style="fill:#ffffff" /><path
       id="XMLID_1010_"
       fill="#575756"
       d="M2117.218,441.861c0,18.291-3.358,37.688-23.365,37.688   c-20.016,0-23.366-19.397-23.366-37.688c0-18.284,3.35-37.689,23.366-37.689C2113.86,404.172,2117.218,423.577,2117.218,441.861z    M2079.835,441.861c0,16.765,1.625,30.378,14.018,30.378s14.017-13.613,14.017-30.378c0-16.757-1.625-30.37-14.017-30.37   S2079.835,425.104,2079.835,441.861z"
       style="fill:#ffffff" /></g><line
     id="XMLID_212_"
     fill="none"
     stroke="#4A4A49"
     stroke-width="7"
     x1="634.389"
     y1="363.357"
     x2="2125.205"
     y2="363.357"
     style="stroke:#ffffff;stroke-opacity:1" /><line
     id="XMLID_211_"
     fill="none"
     stroke="#4A4A49"
     stroke-width="7"
     x1="634.389"
     y1="526.322"
     x2="2125.205"
     y2="526.322"
     style="fill:none;stroke:#ffffff;stroke-opacity:1" /><path
     id="XMLID_209_"
     fill="#007199"
     d="M276.868,256.883H93.386c-27.614,0-50-22.386-50-50V73.401c0-27.614,22.386-50,50-50  h133.482c27.614,0,50,22.386,50,50V256.883z" /><path
     id="XMLID_208_"
     fill="#E30613"
     d="M499.425,256.883H315.938V73.401c0-27.614,22.386-50,50-50h133.487  c27.614,0,50,22.386,50,50v133.482C549.425,234.497,527.039,256.883,499.425,256.883z" /><path
     id="XMLID_207_"
     fill="#F39200"
     d="M226.868,526.322H93.386c-27.614,0-50-22.386-50-50V342.839c0-27.614,22.386-50,50-50  h183.482v183.483C276.868,503.936,254.482,526.322,226.868,526.322z" /><path
     id="XMLID_206_"
     fill="#AFCA0B"
     d="M499.425,526.322H365.938c-27.614,0-50-22.386-50-50V292.839h183.487  c27.614,0,50,22.386,50,50v133.483C549.425,503.936,527.039,526.322,499.425,526.322z" /><g
     id="XMLID_202_"
     opacity="0.31"><polygon
       id="XMLID_205_"
       points="210.051,215.985 119.769,215.985 104.2,183.289 225.624,183.289  " /><path
       id="XMLID_204_"
       d="M148.853,152.374c14.608,0,27.82,7.195,37.358,18.803V67.55c-1.534-0.132-3.077-0.223-4.637-0.223   c-35.284,0-63.884,34.405-63.884,76.846c0,6.518,0.681,12.846,1.951,18.894C127.999,156.317,138.044,152.374,148.853,152.374z" /><rect
       id="XMLID_203_"
       x="189.243"
       y="67.327"
       width="5.355"
       height="113.28" /></g><path
     id="XMLID_199_"
     opacity="0.31"
     d="M521.917,179.798c-20.433-5.973-34.958-21.179-34.958-39c0-6.551,1.968-12.747,5.466-18.267  l-0.619-0.379c-11.662-0.784-21.727-7.343-27.342-16.84c0,0-3.585-7.697-4.03-10.379c-0.112-0.528-0.207-1.065-0.293-1.6  c-2.979-15.058-12-26.006-22.677-26.006c-10.676,0-19.694,10.948-22.673,26.006c-0.086,0.536-0.182,1.072-0.293,1.6  c-0.445,2.682-4.03,10.379-4.03,10.379c-5.615,9.496-15.681,16.056-27.346,16.84l-0.615,0.379  c3.499,5.519,5.466,11.716,5.466,18.267c0,17.83-14.529,33.027-34.958,39l-0.714,0.619v35.568h170.329v-35.568L521.917,179.798z   M453.801,182.925h-32.668v-49.792c0-9.026,7.314-16.336,16.332-16.336l0,0c9.022,0,16.336,7.31,16.336,16.336V182.925z" /><g
     id="XMLID_195_"
     opacity="0.31"><path
       id="XMLID_198_"
       d="M151.456,351.996c0,10.692,5.322,20.14,13.456,25.848c8.131-5.709,13.453-15.156,13.453-25.848   c0-10.693-5.322-20.14-13.453-25.849C156.777,331.856,151.456,341.303,151.456,351.996z" /><path
       id="XMLID_197_"
       d="M193.257,378.356c-10.977,0.973-21.319,7.095-27.243,17.359c-0.396,0.684-0.759,1.37-1.102,2.062   c-0.342-0.693-0.709-1.378-1.101-2.062c-5.928-10.264-16.27-16.386-27.243-17.359c-4.642,9.991-4.513,22.012,1.411,32.276   c5.808,10.057,15.861,16.13,26.591,17.293c0.013,0.016,0.021,0.041,0.033,0.066c0.103-0.008,0.206-0.025,0.309-0.033   c0.104,0.008,0.207,0.025,0.31,0.033c0.012-0.025,0.02-0.05,0.029-0.066c10.73-1.163,20.783-7.236,26.591-17.293   C197.77,400.368,197.897,388.348,193.257,378.356z" /><path
       id="XMLID_196_"
       d="M204.069,427.48c-15.16,1.345-29.45,9.794-37.635,23.976c-0.544,0.941-1.052,1.89-1.522,2.855   c-0.474-0.965-0.977-1.914-1.522-2.855c-8.189-14.183-22.475-22.631-37.635-23.976c-6.415,13.795-6.238,30.395,1.951,44.578   c8.024,13.902,21.91,22.293,36.736,23.893c0.012,0.025,0.025,0.058,0.041,0.091c0.14-0.017,0.285-0.033,0.428-0.05   c0.144,0.017,0.285,0.033,0.429,0.05c0.013-0.033,0.029-0.066,0.041-0.091c14.822-1.6,28.708-9.991,36.736-23.893   C210.307,457.875,210.48,441.275,204.069,427.48z" /></g><path
     id="XMLID_191_"
     opacity="0.31"
     d="M506.587,388.026c0-13.415-12.557-25.205-31.538-32.02  c-2.677-16.732-18.556-29.595-37.795-29.595c-19.244,0-35.118,12.863-37.8,29.595c-18.976,6.815-31.533,18.605-31.533,32.02  c0,12.417,10.767,23.448,27.432,30.428l34.438,41.483v36.368h14.925v-36.368l34.438-41.483  C495.821,411.474,506.587,400.443,506.587,388.026z M412.564,423.718c5.45,1.147,11.221,1.923,17.227,2.278v18.473L412.564,423.718z   M444.717,444.468v-18.473c6.006-0.355,11.777-1.13,17.223-2.278L444.717,444.468z" /><polygon
     id="XMLID_190_"
     fill="#FFFFFF"
     points="205.27,214.476 114.984,214.476 99.415,181.779 220.839,181.779 " /><path
     id="XMLID_163_"
     fill="#FFFFFF"
     d="M144.071,150.864c14.604,0,27.821,7.195,37.354,18.803V66.04  c-1.534-0.132-3.077-0.223-4.637-0.223c-35.284,0-63.884,34.405-63.884,76.837c0,6.527,0.681,12.854,1.955,18.902  C123.218,154.808,133.259,150.864,144.071,150.864z" /><rect
     id="XMLID_129_"
     x="184.457"
     y="65.817"
     fill="#FFFFFF"
     width="5.355"
     height="113.28" /><path
     id="XMLID_126_"
     fill="#FFFFFF"
     d="M517.132,178.289c-20.429-5.973-34.958-21.179-34.958-39c0-6.559,1.968-12.756,5.466-18.275  l-0.615-0.371c-11.666-0.784-21.732-7.343-27.346-16.84c0,0-3.585-7.697-4.031-10.379c-0.111-0.528-0.206-1.065-0.292-1.601  c-2.979-15.057-11.996-26.006-22.673-26.006c-10.681,0-19.699,10.948-22.677,26.006c-0.087,0.536-0.182,1.073-0.293,1.601  c-0.445,2.682-4.03,10.379-4.03,10.379c-5.615,9.496-15.681,16.056-27.342,16.84l-0.619,0.371  c3.499,5.519,5.466,11.716,5.466,18.275c0,17.821-14.526,33.027-34.958,39l-0.714,0.611v35.576h170.329v-35.576L517.132,178.289z   M449.016,181.415h-32.668v-49.8c0-9.018,7.314-16.336,16.336-16.336l0,0c9.018,0,16.332,7.318,16.332,16.336V181.415z" /><path
     id="XMLID_125_"
     fill="#FFFFFF"
     d="M146.675,350.486c0,10.693,5.321,20.139,13.452,25.848  c8.135-5.71,13.453-15.156,13.453-25.848c0-10.693-5.318-20.14-13.453-25.849C151.995,330.347,146.675,339.793,146.675,350.486z" /><path
     id="XMLID_124_"
     fill="#FFFFFF"
     d="M188.471,376.847c-10.973,0.973-21.319,7.095-27.243,17.359  c-0.392,0.676-0.759,1.37-1.102,2.062c-0.342-0.693-0.709-1.386-1.101-2.062c-5.928-10.264-16.27-16.386-27.243-17.359  c-4.642,9.991-4.513,22.004,1.411,32.268c5.812,10.066,15.861,16.138,26.591,17.293c0.013,0.024,0.021,0.049,0.033,0.066  c0.103-0.008,0.206-0.017,0.309-0.033c0.103,0.016,0.207,0.025,0.31,0.033c0.012-0.017,0.02-0.041,0.033-0.066  c10.73-1.155,20.778-7.228,26.591-17.293C192.985,398.851,193.112,386.838,188.471,376.847z" /><path
     id="XMLID_123_"
     fill="#FFFFFF"
     d="M199.284,425.962c-15.16,1.353-29.45,9.802-37.635,23.985  c-0.544,0.94-1.048,1.889-1.522,2.855c-0.474-0.966-0.977-1.914-1.522-2.855c-8.185-14.183-22.475-22.631-37.635-23.985  c-6.411,13.803-6.238,30.404,1.951,44.586c8.024,13.902,21.914,22.293,36.736,23.885c0.012,0.033,0.025,0.066,0.041,0.1  c0.144-0.017,0.285-0.034,0.428-0.05c0.144,0.016,0.285,0.033,0.429,0.05c0.013-0.034,0.029-0.067,0.041-0.1  c14.822-1.592,28.712-9.983,36.735-23.885C205.521,456.365,205.695,439.765,199.284,425.962z" /><path
     id="XMLID_119_"
     fill="#FFFFFF"
     d="M501.802,386.508c0-13.407-12.557-25.197-31.533-32.012  c-2.682-16.732-18.56-29.603-37.8-29.603c-19.241,0-35.118,12.871-37.8,29.603c-18.976,6.815-31.534,18.605-31.534,32.012  c0,12.425,10.768,23.457,27.433,30.437l34.438,41.483v36.36h14.925v-36.36l34.438-41.483  C491.035,409.964,501.802,398.933,501.802,386.508z M407.779,422.208c5.449,1.147,11.221,1.922,17.227,2.277v18.474L407.779,422.208  z M439.932,442.958v-18.474c6.006-0.355,11.777-1.13,17.227-2.277L439.932,442.958z" /></svg>